<svg width="17" height="18" viewBox="0 0 17 18" fill="none" xmlns="http://www.w3.org/2000/svg">
<path d="M1.16732 17.3334C0.946304 17.3334 0.734343 17.2456 0.578062 17.0893C0.421782 16.9331 0.333984 16.7211 0.333984 16.5001V1.50008C0.333984 1.27907 0.421782 1.06711 0.578062 0.910826C0.734343 0.754545 0.946304 0.666748 1.16732 0.666748H12.834C13.055 0.666748 13.267 0.754545 13.4232 0.910826C13.5795 1.06711 13.6673 1.27907 13.6673 1.50008V4.00008H12.0007V2.33341H2.00065V15.6667H12.0007V14.0001H13.6673V16.5001C13.6673 16.7211 13.5795 16.9331 13.4232 17.0893C13.267 17.2456 13.055 17.3334 12.834 17.3334H1.16732ZM12.0007 12.3334V9.83341H6.16732V8.16675H12.0007V5.66675L16.1673 9.00008L12.0007 12.3334Z" fill="#BBC3CD"/>
</svg>
